<?xml version="1.0" encoding="UTF-8"?>
<svg version="1.1" xmlns="http://www.w3.org/2000/svg" width="500" height="500">
<path d="M0 0 C2.00037984 2.354009 3.10410979 4.97633012 4.48046875 7.7421875 C6.13149688 10.33878514 7.89843164 12.85032308 9.66796875 15.3671875 C10.65821417 16.79120649 11.64779271 18.21568944 12.63671875 19.640625 C13.12140625 20.33768555 13.60609375 21.03474609 14.10546875 21.75292969 C17.29747977 26.37091723 20.3784286 31.06359608 23.48046875 35.7421875 C24.14820313 36.73863281 24.8159375 37.73507813 25.50390625 38.76171875 C29.35019575 44.50167952 33.11984951 50.28008456 36.8046875 56.125 C38.93654197 59.45446969 41.16319966 62.7149034 43.4140625 65.96484375 C44.48046875 67.7421875 44.48046875 67.7421875 44.48046875 69.7421875 C43.79758789 69.8872876 43.11470703 70.0323877 42.41113281 70.18188477 C16.11046224 75.83630867 -8.44600861 83.74813767 -31.51953125 97.7421875 C-32.49792969 98.33 -33.47632813 98.9178125 -34.484375 99.5234375 C-40.18922655 103.043963 -45.39815567 106.91664361 -50.5234375 111.23828125 C-52.51953125 112.7421875 -52.51953125 112.7421875 -54.51953125 112.7421875 C-54.51953125 113.4021875 -54.51953125 114.0621875 -54.51953125 114.7421875 C-57.98106971 117.7421875 -57.98106971 117.7421875 -60.51953125 117.7421875 C-60.51953125 118.4021875 -60.51953125 119.0621875 -60.51953125 119.7421875 C-61.98828125 121.1875 -61.98828125 121.1875 -64.01953125 122.8671875 C-71.71327961 129.01130317 -71.71327961 129.01130317 -77.51953125 136.7421875 C-78.17953125 136.7421875 -78.83953125 136.7421875 -79.51953125 136.7421875 C-79.78507812 137.31453125 -80.050625 137.886875 -80.32421875 138.4765625 C-81.57630016 140.8497887 -83.01316645 142.86432036 -84.64453125 144.9921875 C-85.18335938 145.69859375 -85.7221875 146.405 -86.27734375 147.1328125 C-86.68726563 147.66390625 -87.0971875 148.195 -87.51953125 148.7421875 C-89.3984375 148.5234375 -89.3984375 148.5234375 -91.51953125 147.7421875 C-92.609375 145.7734375 -92.609375 145.7734375 -93.45703125 143.2421875 C-94.73963747 139.70118837 -96.12017539 136.49490701 -98.01953125 133.2421875 C-100.22824114 129.41240613 -101.89332506 125.53633783 -103.4296875 121.39453125 C-104.57687671 118.60262631 -105.92665329 115.94682428 -107.29077148 113.25610352 C-110.33705347 107.0237241 -113.06888325 100.63638326 -115.88330078 94.29638672 C-119.6934156 85.64790161 -119.6934156 85.64790161 -123.8671875 77.171875 C-127.32509245 69.99447418 -127.25404173 62.69226365 -124.66796875 55.21875 C-122.54411301 50.63873455 -119.56096145 46.74584008 -116.51953125 42.7421875 C-115.64164357 41.45248172 -114.76629554 40.1610402 -113.89453125 38.8671875 C-111.6239092 35.87952691 -109.50006918 33.97759095 -106.51953125 31.7421875 C-105.69453125 30.9171875 -104.86953125 30.0921875 -104.01953125 29.2421875 C-86.34285482 11.56551107 -58.0246128 -1.3592768 -33.51953125 -5.2578125 C-32.66359375 -5.39960938 -31.80765625 -5.54140625 -30.92578125 -5.6875 C-20.28180327 -7.10439317 -8.61626211 -7.13222725 0 0 Z M-22.51953125 1.7421875 C-23.17953125 2.4021875 -23.83953125 3.0621875 -24.51953125 3.7421875 C-21.87596531 9.42232228 -21.87596531 9.42232228 -16.76953125 12.6796875 C-15.69703125 13.0303125 -14.62453125 13.3809375 -13.51953125 13.7421875 C-14.9713057 9.62882657 -16.90077983 6.23385605 -19.51953125 2.7421875 C-20.50953125 2.4121875 -21.49953125 2.0821875 -22.51953125 1.7421875 Z M-40.51953125 4.7421875 C-40.08439481 9.52868838 -38.09720079 13.535871 -34.51953125 16.7421875 C-30.80794268 17.32779199 -30.80794268 17.32779199 -27.51953125 16.7421875 C-29.75372432 9.70558326 -29.75372432 9.70558326 -34.51953125 4.7421875 C-36.51913137 4.7021955 -38.52000367 4.69871951 -40.51953125 4.7421875 Z M-57.51953125 9.7421875 C-56.92649449 14.48648155 -55.25341725 18.82361757 -52.51953125 22.7421875 C-50.09542989 24.06120341 -50.09542989 24.06120341 -47.51953125 23.7421875 C-45.25095979 22.90140878 -45.25095979 22.90140878 -43.51953125 21.7421875 C-44.08226829 17.7819256 -45.2547619 15.21251423 -47.51953125 11.9296875 C-48.05578125 11.13949219 -48.59203125 10.34929687 -49.14453125 9.53515625 C-49.59828125 8.94347656 -50.05203125 8.35179687 -50.51953125 7.7421875 C-52.87240739 7.7421875 -55.31326349 8.99111762 -57.51953125 9.7421875 Z M-74.58203125 17.7421875 C-75.68224609 18.2990625 -75.68224609 18.2990625 -76.8046875 18.8671875 C-77.65353516 19.3003125 -77.65353516 19.3003125 -78.51953125 19.7421875 C-77.14665783 23.44094841 -75.45597672 26.6936351 -73.39453125 30.0546875 C-72.85570312 30.93769531 -72.316875 31.82070312 -71.76171875 32.73046875 C-71.35179687 33.39433594 -70.941875 34.05820313 -70.51953125 34.7421875 C-67.41931804 33.21857844 -64.46790896 31.54397388 -61.51953125 29.7421875 C-62.84226637 26.14460358 -64.43895105 23.10481615 -66.58203125 19.9296875 C-67.10925781 19.13949219 -67.63648438 18.34929687 -68.1796875 17.53515625 C-68.84291016 16.64763672 -68.84291016 16.64763672 -69.51953125 15.7421875 C-71.36384537 15.7421875 -72.96968524 16.9232181 -74.58203125 17.7421875 Z M-93.51953125 30.7421875 C-93.18243319 37.25941661 -92.07727388 40.06757968 -87.51953125 44.7421875 C-84.2022697 44.17024585 -82.79317302 43.17218286 -80.51953125 40.7421875 C-80.85726562 40.22269531 -81.195 39.70320313 -81.54296875 39.16796875 C-83.91844826 35.45370743 -86.0771594 31.93817835 -87.51953125 27.7421875 C-90.28176403 27.7421875 -91.41234579 29.05643913 -93.51953125 30.7421875 Z M-103.51953125 39.7421875 C-104.92808202 40.93615106 -104.92808202 40.93615106 -104.83203125 44.3671875 C-104.78904323 49.1388582 -103.21522555 51.8572163 -100.51953125 55.7421875 C-99.85953125 56.0721875 -99.19953125 56.4021875 -98.51953125 56.7421875 C-98.51953125 55.7521875 -98.51953125 54.7621875 -98.51953125 53.7421875 C-97.85953125 53.4121875 -97.19953125 53.0821875 -96.51953125 52.7421875 C-96.84953125 50.4321875 -97.17953125 48.1221875 -97.51953125 45.7421875 C-98.17953125 45.7421875 -98.83953125 45.7421875 -99.51953125 45.7421875 C-99.84953125 44.0921875 -100.17953125 42.4421875 -100.51953125 40.7421875 C-101.50953125 40.4121875 -102.49953125 40.0821875 -103.51953125 39.7421875 Z M-113.51953125 51.7421875 C-114.70504738 55.29873588 -114.0088779 56.64128578 -112.48828125 59.95703125 C-111.12177865 62.4751429 -109.40558314 64.59599052 -107.51953125 66.7421875 C-106.40606337 63.94184911 -106.48442852 62.84075047 -107.515625 59.9453125 C-107.99128906 58.97078125 -108.46695313 57.99625 -108.95703125 56.9921875 C-109.43011719 56.00734375 -109.90320313 55.0225 -110.390625 54.0078125 C-110.94943359 52.88632813 -110.94943359 52.88632813 -111.51953125 51.7421875 C-112.17953125 51.7421875 -112.83953125 51.7421875 -113.51953125 51.7421875 Z M10.48046875 54.7421875 C10.98104027 59.12218826 12.41240409 61.58388565 15.48046875 64.7421875 C16.47046875 64.7421875 17.46046875 64.7421875 18.48046875 64.7421875 C18.12282018 60.01320113 18.12282018 60.01320113 16.16796875 55.8046875 C14.24866886 54.38697865 14.24866886 54.38697865 10.48046875 54.7421875 Z M-4.51953125 57.7421875 C-5.92933446 61.97159713 -4.4442654 63.82397869 -2.51953125 67.7421875 C-0.9562476 70.08097626 -0.9562476 70.08097626 0.48046875 71.7421875 C2.13046875 71.4121875 3.78046875 71.0821875 5.48046875 70.7421875 C6.8171239 67.84265318 6.8171239 67.84265318 5.51953125 65.515625 C5.05289063 64.72414063 4.58625 63.93265625 4.10546875 63.1171875 C3.64398438 62.32054687 3.1825 61.52390625 2.70703125 60.703125 C1.62805886 58.81494073 1.62805886 58.81494073 0.48046875 57.7421875 C-1.1857024 57.70154918 -2.8534122 57.6994665 -4.51953125 57.7421875 Z M-21.08203125 64.7421875 C-22.21640625 65.4021875 -23.35078125 66.0621875 -24.51953125 66.7421875 C-22.51095475 71.66319992 -20.22692531 76.16762512 -17.51953125 80.7421875 C-14.11640387 79.68343676 -11.50599894 78.73316596 -8.51953125 76.7421875 C-10.0574726 73.56228944 -11.77601025 70.52736776 -13.58203125 67.4921875 C-14.10925781 66.60015625 -14.63648438 65.708125 -15.1796875 64.7890625 C-15.62183594 64.11359375 -16.06398438 63.438125 -16.51953125 62.7421875 C-18.26159433 62.7421875 -19.60548217 63.8831044 -21.08203125 64.7421875 Z M-37.51953125 72.7421875 C-40.48953125 74.3921875 -43.45953125 76.0421875 -46.51953125 77.7421875 C-45.40175354 80.05843811 -44.27579033 82.37003355 -43.14453125 84.6796875 C-42.82742187 85.33904297 -42.5103125 85.99839844 -42.18359375 86.67773438 C-40.56475756 90.35523557 -40.56475756 90.35523557 -37.51953125 92.7421875 C-34.54953125 90.7621875 -31.57953125 88.7821875 -28.51953125 86.7421875 C-31.96453664 78.98737958 -31.96453664 78.98737958 -37.51953125 72.7421875 Z M-64.51953125 89.7421875 C-62.97407979 95.22151539 -60.36409913 99.85647931 -57.51953125 104.7421875 C-53.52909741 102.86323595 -53.52909741 102.86323595 -50.51953125 99.7421875 C-50.92976495 95.77435332 -52.27395514 93.18469325 -54.51953125 89.9296875 C-55.05578125 89.13949219 -55.59203125 88.34929687 -56.14453125 87.53515625 C-56.59828125 86.94347656 -57.05203125 86.35179687 -57.51953125 85.7421875 C-59.91128724 85.7421875 -62.60451609 88.43834739 -64.51953125 89.7421875 Z M-74.51953125 98.7421875 C-76.48298339 100.81790189 -76.48298339 100.81790189 -77.51953125 103.7421875 C-76.57670961 106.96005175 -76.57670961 106.96005175 -74.70703125 110.0546875 C-74.12308594 111.12332031 -73.53914063 112.19195312 -72.9375 113.29296875 C-72.46957031 114.10121094 -72.00164062 114.90945313 -71.51953125 115.7421875 C-68.32293248 112.88605846 -68.32293248 112.88605846 -66.95703125 108.9296875 C-67.69481709 104.74890109 -69.55639096 101.77716149 -72.51953125 98.7421875 C-73.17953125 98.7421875 -73.83953125 98.7421875 -74.51953125 98.7421875 Z M-86.51953125 111.7421875 C-85.17730745 119.19412214 -85.17730745 119.19412214 -81.51953125 125.7421875 C-80.85953125 125.7421875 -80.19953125 125.7421875 -79.51953125 125.7421875 C-79.77134589 119.96304145 -80.08068234 115.91201526 -84.51953125 111.7421875 C-85.17953125 111.7421875 -85.83953125 111.7421875 -86.51953125 111.7421875 Z " fill="#FDFEFD" transform="translate(289.51953125,198.2578125)"/>
<path d="M0 0 C0.99 0.495 0.99 0.495 2 1 C1.98428955 2.0737085 1.9685791 3.14741699 1.95239258 4.25366211 C1.89770046 8.27360399 1.86350842 12.29351362 1.83520508 16.3137207 C1.82020731 18.04685006 1.79980228 19.77994204 1.77368164 21.51293945 C1.73689797 24.01783525 1.72018349 26.5222252 1.70703125 29.02734375 C1.69154739 29.79022202 1.67606354 30.55310028 1.66011047 31.33909607 C1.65740804 40.16567548 4.13482259 46.50074936 10 53 C10 53.66 10 54.32 10 55 C10.639375 55.2475 11.27875 55.495 11.9375 55.75 C14 57 14 57 14.5625 59.0625 C14.7790625 60.0215625 14.7790625 60.0215625 15 61 C15.99 61.33 16.98 61.66 18 62 C21 65.44444444 21 65.44444444 21 68 C21.54269531 68.1959375 22.08539063 68.391875 22.64453125 68.59375 C26.01680576 70.60704822 28.22252327 73.50444532 30.6875 76.5 C31.74749537 77.76663234 32.80870475 79.03224965 33.87109375 80.296875 C34.39558105 80.92271484 34.92006836 81.54855469 35.46044922 82.19335938 C38.35619323 85.59147318 41.40639736 88.84656738 44.453125 92.109375 C46 94 46 94 46 96 C39.42383076 94.95907936 32.89466403 93.79051268 26.375 92.4375 C-1.27104518 86.90270026 -29.83247698 89.99891987 -55 103 C-56.03125 103.51175781 -57.0625 104.02351563 -58.125 104.55078125 C-80.91215869 116.25154043 -101.01934654 133.43257555 -115 155 C-115.66 154.34 -116.32 153.68 -117 153 C-116.25556641 151.51113281 -116.25556641 151.51113281 -115.49609375 149.9921875 C-115.17116943 149.34217773 -114.84624512 148.69216797 -114.51147461 148.02246094 C-113.78754731 146.57493548 -113.06308933 145.12767531 -112.33813477 143.68066406 C-110.59865873 140.20702338 -108.86432918 136.73138873 -107.15625 133.2421875 C-103.40812696 125.62668295 -99.37087856 118.27460907 -95 111 C-94.51917969 110.18273437 -94.03835937 109.36546875 -93.54296875 108.5234375 C-86.38326841 96.41309036 -78.69406329 85.04622425 -70 74 C-68.9320711 72.58742131 -67.86869728 71.17137187 -66.8125 69.75 C-64.74596693 66.98688275 -62.6653749 64.23559832 -60.5625 61.5 C-60.04816406 60.8296875 -59.53382813 60.159375 -59.00390625 59.46875 C-48.07392294 46.00335146 -35.73098317 33.64348409 -23.5 21.375 C-22.67604736 20.54645508 -21.85209473 19.71791016 -21.00317383 18.86425781 C-14.31113952 12.18917566 -7.287155 6.01190287 0 0 Z " fill="#FEFEFE" transform="translate(271,85)"/>
<path d="M0 0 C2.9901074 3.29678508 4.84441883 6.78173554 6.875 10.7265625 C8.85792596 14.48420719 11.12487607 18.02941394 13.43359375 21.59375 C14.4375 23.6875 14.4375 23.6875 13.4375 26.6875 C11.37109375 27.41796875 11.37109375 27.41796875 8.875 27.875 C8.04871094 28.03355469 7.22242188 28.19210937 6.37109375 28.35546875 C5.73300781 28.46503906 5.09492188 28.57460938 4.4375 28.6875 C4.4375 29.3475 4.4375 30.0075 4.4375 30.6875 C5.0975 30.6875 5.7575 30.6875 6.4375 30.6875 C5.7775 32.0075 5.1175 33.3275 4.4375 34.6875 C3.7775 34.6875 3.1175 34.6875 2.4375 34.6875 C2.20160156 35.27273438 1.96570313 35.85796875 1.72265625 36.4609375 C-1.45513085 41.9665261 -8.31915128 45.67569739 -14.3125 47.375 C-17.88441619 47.97137677 -18.62606776 47.65738896 -22.125 46 C-22.929375 45.236875 -23.73375 44.47375 -24.5625 43.6875 C-24.5625 42.6975 -24.5625 41.7075 -24.5625 40.6875 C-21.2625 39.6975 -17.9625 38.7075 -14.5625 37.6875 C-22.30533794 39.19970848 -29.56638333 41.63174592 -37 44.25 C-38.2764755 44.69398434 -39.55317212 45.13733344 -40.83007812 45.58007812 C-47.1607913 47.77864263 -53.47807972 50.01172862 -59.78515625 52.27734375 C-61.49844116 52.88630493 -61.49844116 52.88630493 -63.24633789 53.50756836 C-65.38322792 54.26790035 -67.51683777 55.03754726 -69.64624023 55.81860352 C-79.13224928 59.18275081 -88.79010531 61.03414604 -98.875 60.8125 C-99.96425781 60.79445313 -101.05351562 60.77640625 -102.17578125 60.7578125 C-102.96339844 60.73460937 -103.75101563 60.71140625 -104.5625 60.6875 C-105.55456183 57.00087024 -105.70371197 55.05940015 -103.875 51.6875 C-103.54113281 51.048125 -103.20726562 50.40875 -102.86328125 49.75 C-99.97457622 45.16971094 -96.68139951 41.77817892 -92.4375 38.4375 C-88.76419899 35.49691822 -85.20863475 32.50244742 -81.75 29.3125 C-63.59286602 12.89959464 -26.00185347 -13.31802251 0 0 Z M-7.5625 33.6875 C-3.38662255 35.07945915 -1.42775224 33.51073219 2.4375 31.6875 C-1.73837745 30.29554085 -3.69724776 31.86426781 -7.5625 33.6875 Z M-12.5625 34.6875 C-11.5625 36.6875 -11.5625 36.6875 -11.5625 36.6875 Z " fill="#FDFEFE" transform="translate(313.5625,295.3125)"/>
<path d="M0 0 C3 2 3 2 4 3 C4.66 2.34 5.32 1.68 6 1 C8.32275177 0.59952556 10.65739357 0.2602896 13 0 C13.33 3.3 13.66 6.6 14 10 C14.66 10 15.32 10 16 10 C16.33 6.7 16.66 3.4 17 0 C18.98 0 20.96 0 23 0 C23.12375 1.093125 23.2475 2.18625 23.375 3.3125 C23.75464801 7.07381802 23.75464801 7.07381802 26 10 C28.2773501 7.18490007 28.2773501 7.18490007 28 4 C28.66 4 29.32 4 30 4 C30 2.68 30 1.36 30 0 C34.18920767 -0.08214133 37.90619819 0.18123964 42 1 C42.66 0.67 43.32 0.34 44 0 C45.99960012 -0.039992 48.00047242 -0.04346799 50 0 C50.16703145 3.64581672 50.33356419 7.29165605 50.5 10.9375 C50.54769531 11.97841797 50.59539062 13.01933594 50.64453125 14.09179688 C50.68964844 15.08115234 50.73476562 16.07050781 50.78125 17.08984375 C50.82314453 18.00628662 50.86503906 18.92272949 50.90820312 19.86694336 C51 22 51 22 51 23 C51.66 23.33 52.32 23.66 53 24 C53 24.66 53 25.32 53 26 C54.32 26 55.64 26 57 26 C57.495 24.515 57.495 24.515 58 23 C58.33 23 58.66 23 59 23 C59.0093457 22.44538086 59.01869141 21.89076172 59.02832031 21.31933594 C59.08215722 18.79533519 59.16577254 16.27316186 59.25 13.75 C59.26417969 12.87730469 59.27835937 12.00460937 59.29296875 11.10546875 C59.53918374 4.65463597 59.53918374 4.65463597 61.8203125 1.4140625 C64.96765988 -0.62776501 67.33755403 -0.40693844 71 0 C71.99 0.99 71.99 0.99 73 2 C73.53625 1.67 74.0725 1.34 74.625 1 C77.5391061 -0.22699204 79.86867708 -0.14233286 83 0 C83.495 4.95 83.495 4.95 84 10 C84.66 10 85.32 10 86 10 C85.51515724 5.35413108 85.51515724 5.35413108 84 1 C88.455 0.505 88.455 0.505 93 0 C93.19699543 3.2913391 93.38279938 6.58270719 93.5625 9.875 C93.64661133 11.25171875 93.64661133 11.25171875 93.73242188 12.65625 C94.06105348 18.87834177 93.8052264 24.82183958 93 31 C90.625 31.625 90.625 31.625 88 32 C86 30 86 30 85.8046875 27.1796875 C85.82789063 26.08914063 85.85109375 24.99859375 85.875 23.875 C85.89304687 22.77929688 85.91109375 21.68359375 85.9296875 20.5546875 C85.95289063 19.71164062 85.97609375 18.86859375 86 18 C85.34 18 84.68 18 84 18 C83.67 22.29 83.34 26.58 83 31 C81.02 31 79.04 31 77 31 C76.505 27.535 76.505 27.535 76 24 C75.5875 24.94875 75.175 25.8975 74.75 26.875 C73 30 73 30 71.1875 31.4375 C66.5155355 32.6388623 62.27065537 30.88411266 58 29 C58 29.66 58 30.32 58 31 C54.5627834 31.11604679 51.12606914 31.18719508 47.6875 31.25 C46.71103516 31.28351563 45.73457031 31.31703125 44.72851562 31.3515625 C43.79072266 31.36445313 42.85292969 31.37734375 41.88671875 31.390625 C40.59060669 31.4220459 40.59060669 31.4220459 39.26831055 31.45410156 C36.23378878 30.84660931 35.69228825 29.49553477 34 27 C33.01 26.67 32.02 26.34 31 26 C31 27.65 31 29.3 31 31 C28.625 31.625 28.625 31.625 26 32 C25.34 31.34 24.68 30.68 24 30 C23.505 30.495 23.505 30.495 23 31 C21.00041636 31.04080783 18.99954746 31.04254356 17 31 C16.93941406 30.30132812 16.87882812 29.60265625 16.81640625 28.8828125 C16.69072266 27.51769531 16.69072266 27.51769531 16.5625 26.125 C16.48128906 25.22007812 16.40007812 24.31515625 16.31640625 23.3828125 C16.13010715 20.98889139 16.13010715 20.98889139 15 19 C13.78306124 21.43387753 13.68040104 23.41838846 13.4375 26.125 C13.35371094 27.03507812 13.26992187 27.94515625 13.18359375 28.8828125 C13.12300781 29.58148438 13.06242187 30.28015625 13 31 C9.625 31.125 9.625 31.125 6 31 C5.34 30.34 4.68 29.68 4 29 C3.154375 29.515625 2.30875 30.03125 1.4375 30.5625 C-2.58736786 32.24562656 -4.80214298 31.92352855 -9 31 C-9 30.34 -9 29.68 -9 29 C-9.66 28.67 -10.32 28.34 -11 28 C-11.11618764 24.08358289 -11.18724654 20.16760899 -11.25 16.25 C-11.28351563 15.13882812 -11.31703125 14.02765625 -11.3515625 12.8828125 C-11.36445313 11.81289063 -11.37734375 10.74296875 -11.390625 9.640625 C-11.41157227 8.65610352 -11.43251953 7.67158203 -11.45410156 6.65722656 C-10.33769757 0.12446254 -5.89851001 -0.64347382 0 0 Z M44 2 C45 4 45 4 45 4 Z M41 3 C38.66405424 6.64991525 38.77209338 9.74574307 39 14 C39.31478446 15.33783393 39.64587656 16.67203709 40 18 C40 19.66666667 40 21.33333333 40 23 C40.33 23.66 40.66 24.32 41 25 C41.66 25 42.32 25 43 25 C43.1964031 21.70880065 43.38060745 18.41703066 43.5625 15.125 C43.61857422 14.18785156 43.67464844 13.25070312 43.73242188 12.28515625 C43.78076172 11.38925781 43.82910156 10.49335938 43.87890625 9.5703125 C43.9260376 8.74289551 43.97316895 7.91547852 44.02172852 7.06298828 C44.14984957 4.93489187 44.14984957 4.93489187 43 3 C42.34 3 41.68 3 41 3 Z M74 3 C75 6 75 6 75 6 Z M38 4 C39 6 39 6 39 6 Z M-5 5 C-5 11.93 -5 18.86 -5 26 C-3.68 26 -2.36 26 -1 26 C-0.8453125 24.3603125 -0.8453125 24.3603125 -0.6875 22.6875 C0.03876189 18.79209534 0.43979225 18.56020775 3 16 C2.76956136 13.34533951 2.76956136 13.34533951 2 11 C1.01 10.67 0.02 10.34 -1 10 C-1 8.68 -1 7.36 -1 6 C-2.32 5.67 -3.64 5.34 -5 5 Z M65 5 C65 11.93 65 18.86 65 26 C65.99 26 66.98 26 68 26 C67.34 23.03 66.68 20.06 66 17 C66.7425 17.37125 67.485 17.7425 68.25 18.125 C70.94283647 19.29515863 70.94283647 19.29515863 73.3125 18.125 C73.869375 17.75375 74.42625 17.3825 75 17 C75 15.35 75 13.7 75 12 C73.35 11.67 71.7 11.34 70 11 C69.67 9.02 69.34 7.04 69 5 C67.68 5 66.36 5 65 5 Z M33 11 C33 12.65 33 14.3 33 16 C33.33 16 33.66 16 34 16 C34 14.35 34 12.7 34 11 C33.67 11 33.34 11 33 11 Z M27 13 C28 15 28 15 28 15 Z M16 17 C17 19 17 19 17 19 Z M34 17 C35 20 35 20 35 20 Z M76 19 C75.67 19.66 75.34 20.32 75 21 C75.66 21 76.32 21 77 21 C76.67 20.34 76.34 19.68 76 19 Z M26 20 C27 23 27 23 27 23 Z M69 20 C70 24 70 24 70 24 Z M4 21 C4 22.65 4 24.3 4 26 C4.33 26 4.66 26 5 26 C5 24.35 5 22.7 5 21 C4.67 21 4.34 21 4 21 Z M25 26 C26 28 26 28 26 28 Z M41 26 C42 28 42 28 42 28 Z " fill="#FCFDFD" transform="translate(176,380)"/>
<path d="M0 0 C4.58328022 -0.05802751 9.16646604 -0.09360593 13.75 -0.125 C15.05195313 -0.14175781 16.35390625 -0.15851563 17.6953125 -0.17578125 C18.94570313 -0.18222656 20.19609375 -0.18867188 21.484375 -0.1953125 C22.63647461 -0.20578613 23.78857422 -0.21625977 24.97558594 -0.22705078 C27.89892966 -0.00758762 29.53732509 0.47271878 32 2 C32 2.66 32 3.32 32 4 C32.66 4.33 33.32 4.66 34 5 C33.7215625 6.794375 33.7215625 6.794375 33.4375 8.625 C32.69012656 15.1126167 33.40107831 21.52243156 34 28 C35.20847875 25.58304249 34.92458689 24.62471898 34.5 22 C33.88888889 18.22222222 33.88888889 18.22222222 35 16 C35.26955833 13.66810655 35.44507377 11.33678493 35.62109375 8.99609375 C35.80865234 8.00802734 35.80865234 8.00802734 36 7 C36.66 6.67 37.32 6.34 38 6 C38 7.65 38 9.3 38 11 C38.13277344 10.28972656 38.26554687 9.57945312 38.40234375 8.84765625 C38.57894531 7.92855469 38.75554687 7.00945312 38.9375 6.0625 C39.11152344 5.14597656 39.28554688 4.22945313 39.46484375 3.28515625 C40 1 40 1 41 0 C42.99958364 -0.04080783 45.00045254 -0.04254356 47 0 C48.42777203 4.0113595 49.41994487 7.8489768 50.0703125 12.0546875 C50.24433594 13.16328125 50.41835938 14.271875 50.59765625 15.4140625 C50.77167969 16.55617188 50.94570313 17.69828125 51.125 18.875 C51.30675781 20.0403125 51.48851562 21.205625 51.67578125 22.40625 C52.12179873 25.27015169 52.5630502 28.13470326 53 31 C50.69 31 48.38 31 46 31 C45.505 29.02 45.505 29.02 45 27 C43.68 26.67 42.36 26.34 41 26 C41 27.65 41 29.3 41 31 C37.6888987 32.10370043 35.75251051 31.92673641 32.3125 31.5625 C31.31863281 31.46066406 30.32476562 31.35882813 29.30078125 31.25390625 C28.54152344 31.17011719 27.78226562 31.08632813 27 31 C26.03338637 27.87819599 26.01011091 25.47916205 26.4375 22.25 C26.53933594 21.45078125 26.64117187 20.6515625 26.74609375 19.828125 C26.87177734 18.92320312 26.87177734 18.92320312 27 18 C26.34 18.33 25.68 18.66 25 19 C24.53101037 21.8159849 24.53101037 21.8159849 24.375 25.0625 C24.30023438 26.16722656 24.22546875 27.27195312 24.1484375 28.41015625 C24.09945313 29.26480469 24.05046875 30.11945313 24 31 C22.02 31 20.04 31 18 31 C17.63404253 27.27189228 17.28431444 23.54243334 16.9375 19.8125 C16.83373047 18.75740234 16.72996094 17.70230469 16.62304688 16.61523438 C16.52958984 15.59365234 16.43613281 14.57207031 16.33984375 13.51953125 C16.25081787 12.58214111 16.16179199 11.64475098 16.07006836 10.67895508 C15.99886231 7.956502 16.45090614 5.6542946 17 3 C16.67 2.67 16.34 2.34 16 2 C16 3.32 16 4.64 16 6 C14.35 5.67 12.7 5.34 11 5 C11 13.58 11 22.16 11 31 C9.02 31 7.04 31 5 31 C4.67 27.7 4.34 24.4 4 21 C3.34 21.33 2.68 21.66 2 22 C2.01160156 21.31292969 2.02320313 20.62585938 2.03515625 19.91796875 C2.04417969 19.01691406 2.05320312 18.11585938 2.0625 17.1875 C2.07410156 16.29417969 2.08570313 15.40085937 2.09765625 14.48046875 C2.11009967 11.86586209 2.11009967 11.86586209 1 9 C1.99 8.01 2.98 7.02 4 6 C2.35 5.67 0.7 5.34 -1 5 C-0.67 3.35 -0.34 1.7 0 0 Z M25 6 C25 6.99 25 7.98 25 9 C25.66 9 26.32 9 27 9 C27 8.01 27 7.02 27 6 C26.34 6 25.68 6 25 6 Z M43 8 C42.67 12.29 42.34 16.58 42 21 C42.99 20.34 43.98 19.68 45 19 C44.67 15.37 44.34 11.74 44 8 C43.67 8 43.34 8 43 8 Z M27 9 C28 12 28 12 28 12 Z M31 14 C32 16 32 16 32 16 Z M36 18 C36 19.65 36 21.3 36 23 C36.33 23 36.66 23 37 23 C37 21.35 37 19.7 37 18 C36.67 18 36.34 18 36 18 Z " fill="#FCFDFD" transform="translate(280,380)"/>
<path d="M0 0 C1.32 0.66 2.64 1.32 4 2 C3.32634227 5.94724936 2.65080067 9.89417157 1.97363281 13.84082031 C1.63250403 15.831216 1.29279848 17.82185544 0.953125 19.8125 C-0.26349104 26.89749931 -1.5326942 33.96232817 -3 41 C-3.99 41 -4.98 41 -6 41 C-7.25390625 39.70703125 -7.25390625 39.70703125 -8.5625 37.8125 C-11.41548512 33.80387534 -14.3649066 29.89107043 -17.375 26 C-18.25795554 24.85427689 -19.14077902 23.70845198 -20.0234375 22.5625 C-20.67570312 21.716875 -21.32796875 20.87125 -22 20 C-20.46779223 15.76447023 -17.31856159 13.68173857 -13.8125 11.125 C-12.63691298 10.24627183 -11.46242573 9.36607039 -10.2890625 8.484375 C-9.72348633 8.06091797 -9.15791016 7.63746094 -8.57519531 7.20117188 C-5.59942547 4.93198594 -2.80292001 2.47699908 0 0 Z " fill="#FCFDFD" transform="translate(304,100)"/>
<path d="M0 0 C1.98 0 3.96 0 6 0 C6.33 2.97 6.66 5.94 7 9 C7.33 9 7.66 9 8 9 C8 14.61 8 20.22 8 26 C7.67 26 7.34 26 7 26 C6.67 27.65 6.34 29.3 6 31 C4.02 31 2.04 31 0 31 C-1.57210612 20.58479695 -1.02164796 10.45364785 0 0 Z " fill="#FCFDFD" transform="translate(272,380)"/>
<path d="M0 0 C1.32 0 2.64 0 4 0 C4.33 0.66 4.66 1.32 5 2 C7.01669827 3.13350534 7.01669827 3.13350534 9 4 C8.34 5.32 7.68 6.64 7 8 C4.69 7.67 2.38 7.34 0 7 C0 6.34 0 5.68 0 5 C-0.66 4.67 -1.32 4.34 -2 4 C-1.34 2.68 -0.68 1.36 0 0 Z M1 1 C2 3 2 3 2 3 Z " fill="#F6F7F7" transform="translate(167,404)"/>
<path d="M0 0 C0.33 0 0.66 0 1 0 C1 4.95 1 9.9 1 15 C0.34 15 -0.32 15 -1 15 C-1.33 15.66 -1.66 16.32 -2 17 C-2 15.02 -2 13.04 -2 11 C-1.34 11 -0.68 11 0 11 C-0.08378906 10.37351562 -0.16757813 9.74703125 -0.25390625 9.1015625 C-0.35574219 8.28429687 -0.45757812 7.46703125 -0.5625 6.625 C-0.66691406 5.81289063 -0.77132812 5.00078125 -0.87890625 4.1640625 C-1 2 -1 2 0 0 Z " fill="#F1F3FF" transform="translate(181,381)"/>
<path d="M0 0 C0.66 0.66 1.32 1.32 2 2 C1.34 2 0.68 2 0 2 C0 1.34 0 0.68 0 0 Z " fill="#FFFFFF" transform="translate(173,397)"/>
<path d="" fill="#FFFFFF" transform="translate(0,0)"/>
<path d="" fill="#FFFFFF" transform="translate(0,0)"/>
<path d="" fill="#000000" transform="translate(0,0)"/>
<path d="" fill="#000000" transform="translate(0,0)"/>
<path d="" fill="#000000" transform="translate(0,0)"/>
<path d="" fill="#000000" transform="translate(0,0)"/>
<path d="" fill="#000000" transform="translate(0,0)"/>
<path d="" fill="#000000" transform="translate(0,0)"/>
<path d="" fill="#000000" transform="translate(0,0)"/>
<path d="" fill="#000000" transform="translate(0,0)"/>
<path d="" fill="#000000" transform="translate(0,0)"/>
<path d="" fill="#000000" transform="translate(0,0)"/>
<path d="" fill="#000000" transform="translate(0,0)"/>
<path d="" fill="#000000" transform="translate(0,0)"/>
<path d="" fill="#000000" transform="translate(0,0)"/>
<path d="" fill="#FFFFFF" transform="translate(0,0)"/>
<path d="" fill="#000000" transform="translate(0,0)"/>
<path d="" fill="#FFFFFF" transform="translate(0,0)"/>
<path d="" fill="#FFFFFF" transform="translate(0,0)"/>
<path d="" fill="#000000" transform="translate(0,0)"/>
<path d="" fill="#000000" transform="translate(0,0)"/>
<path d="" fill="#FFFFFF" transform="translate(0,0)"/>
<path d="" fill="#000000" transform="translate(0,0)"/>
<path d="" fill="#000000" transform="translate(0,0)"/>
<path d="" fill="#000000" transform="translate(0,0)"/>
<path d="" fill="#000000" transform="translate(0,0)"/>
<path d="" fill="#000000" transform="translate(0,0)"/>
<path d="" fill="#000000" transform="translate(0,0)"/>
<path d="" fill="#000000" transform="translate(0,0)"/>
<path d="" fill="#000000" transform="translate(0,0)"/>
<path d="" fill="#000000" transform="translate(0,0)"/>
<path d="" fill="#000000" transform="translate(0,0)"/>
<path d="" fill="#000000" transform="translate(0,0)"/>
<path d="" fill="#000000" transform="translate(0,0)"/>
<path d="" fill="#000000" transform="translate(0,0)"/>
<path d="" fill="#000000" transform="translate(0,0)"/>
<path d="" fill="#000000" transform="translate(0,0)"/>
<path d="" fill="#000000" transform="translate(0,0)"/>
<path d="" fill="#000000" transform="translate(0,0)"/>
<path d="" fill="#000000" transform="translate(0,0)"/>
<path d="" fill="#000000" transform="translate(0,0)"/>
<path d="" fill="#000000" transform="translate(0,0)"/>
<path d="" fill="#000000" transform="translate(0,0)"/>
<path d="" fill="#000000" transform="translate(0,0)"/>
<path d="" fill="#000000" transform="translate(0,0)"/>
<path d="" fill="#000000" transform="translate(0,0)"/>
<path d="" fill="#000000" transform="translate(0,0)"/>
<path d="" fill="#000000" transform="translate(0,0)"/>
<path d="" fill="#000000" transform="translate(0,0)"/>
<path d="" fill="#000000" transform="translate(0,0)"/>
<path d="" fill="#000000" transform="translate(0,0)"/>
<path d="" fill="#000000" transform="translate(0,0)"/>
<path d="" fill="#000000" transform="translate(0,0)"/>
<path d="" fill="#000000" transform="translate(0,0)"/>
<path d="" fill="#000000" transform="translate(0,0)"/>
<path d="" fill="#000000" transform="translate(0,0)"/>
<path d="" fill="#000000" transform="translate(0,0)"/>
<path d="" fill="#000000" transform="translate(0,0)"/>
<path d="" fill="#000000" transform="translate(0,0)"/>
<path d="" fill="#000000" transform="translate(0,0)"/>
<path d="" fill="#000000" transform="translate(0,0)"/>
<path d="" fill="#000000" transform="translate(0,0)"/>
<path d="" fill="#000000" transform="translate(0,0)"/>
<path d="" fill="#000000" transform="translate(0,0)"/>
<path d="" fill="#000000" transform="translate(0,0)"/>
<path d="" fill="#000000" transform="translate(0,0)"/>
<path d="" fill="#000000" transform="translate(0,0)"/>
<path d="" fill="#000000" transform="translate(0,0)"/>
<path d="" fill="#000000" transform="translate(0,0)"/>
</svg>
